<svg xmlns="http://www.w3.org/2000/svg" width="48" height="48" viewBox="0 0 48 48">
  <!-- Crimson Thorn: thorny red gothic frame -->
  <defs>
    <linearGradient id="bg_05" x1="0" y1="0" x2="1" y2="1">
      <stop offset="0%" stop-color="#170709"/>
      <stop offset="100%" stop-color="#3a1018"/>
    </linearGradient>
    <linearGradient id="bd_05" x1="0" y1="0" x2="1" y2="1">
      <stop offset="0%" stop-color="#ff9aa7"/>
      <stop offset="100%" stop-color="#b1264a"/>
    </linearGradient>
  </defs>

  <rect width="48" height="48" rx="0" fill="url(#bg_05)"/>
  <rect x="1.5" y="1.5" width="45" height="45" rx="0" fill="none" stroke="url(#bd_05)" stroke-width="2"/>
  <rect x="4.5" y="4.5" width="39" height="39" rx="0" fill="none" stroke="#6a1e35" stroke-width="1"/>
  <rect x="6" y="6" width="36" height="36" rx="0" fill="#120709"/>
  <line x1="14" y1="2.5" x2="34" y2="2.5" stroke="#ffccd4" stroke-width="1" opacity="0.8"/>
  <line x1="14" y1="45.5" x2="34" y2="45.5" stroke="#cf4f70" stroke-width="1" opacity="0.8"/>
  <line x1="2.5" y1="14" x2="2.5" y2="34" stroke="#ffccd4" stroke-width="1" opacity="0.8"/>
  <line x1="45.5" y1="14" x2="45.5" y2="34" stroke="#cf4f70" stroke-width="1" opacity="0.8"/>

  <line x1="1" y1="1" x2="9" y2="9" stroke="#ffccd4" stroke-width="1.5"/>
  <line x1="9" y1="1" x2="1" y2="9" stroke="#ffccd4" stroke-width="1.5"/>
  <line x1="39" y1="1" x2="47" y2="9" stroke="#cf4f70" stroke-width="1.5"/>
  <line x1="47" y1="1" x2="39" y2="9" stroke="#cf4f70" stroke-width="1.5"/>
  <line x1="1" y1="39" x2="9" y2="47" stroke="#cf4f70" stroke-width="1.5"/>
  <line x1="9" y1="39" x2="1" y2="47" stroke="#cf4f70" stroke-width="1.5"/>
  <line x1="39" y1="39" x2="47" y2="47" stroke="#ffccd4" stroke-width="1.5"/>
  <line x1="47" y1="39" x2="39" y2="47" stroke="#ffccd4" stroke-width="1.5"/>
</svg>
