<svg xmlns="http://www.w3.org/2000/svg" width="48" height="48" viewBox="0 0 48 48">
  <!-- Noir Cathedral: gothic noir frame with pale highlights -->
  <defs>
    <linearGradient id="bg_20" x1="0" y1="0" x2="1" y2="1">
      <stop offset="0%" stop-color="#0b0b0d"/>
      <stop offset="100%" stop-color="#1d1d24"/>
    </linearGradient>
    <linearGradient id="bd_20" x1="0" y1="0" x2="1" y2="1">
      <stop offset="0%" stop-color="#d9d9e8"/>
      <stop offset="100%" stop-color="#68687c"/>
    </linearGradient>
  </defs>

  <rect width="48" height="48" rx="0" fill="url(#bg_20)"/>
  <rect x="1.5" y="1.5" width="45" height="45" rx="0" fill="none" stroke="url(#bd_20)" stroke-width="2"/>
  <rect x="4.5" y="4.5" width="39" height="39" rx="0" fill="none" stroke="#47475e" stroke-width="1"/>
  <rect x="6" y="6" width="36" height="36" rx="0" fill="#070709"/>
  <circle cx="24" cy="2.5" r="1.4" fill="#f3f3ff"/>
  <circle cx="24" cy="45.5" r="1.4" fill="#8f8fa8"/>
  <circle cx="2.5" cy="24" r="1.4" fill="#f3f3ff"/>
  <circle cx="45.5" cy="24" r="1.4" fill="#8f8fa8"/>
  <line x1="20" y1="2.5" x2="28" y2="2.5" stroke="#f3f3ff" stroke-width="0.8"/>
  <line x1="20" y1="45.5" x2="28" y2="45.5" stroke="#8f8fa8" stroke-width="0.8"/>

  <line x1="1" y1="1" x2="9" y2="9" stroke="#f3f3ff" stroke-width="1.5"/>
  <line x1="9" y1="1" x2="1" y2="9" stroke="#f3f3ff" stroke-width="1.5"/>
  <line x1="39" y1="1" x2="47" y2="9" stroke="#8f8fa8" stroke-width="1.5"/>
  <line x1="47" y1="1" x2="39" y2="9" stroke="#8f8fa8" stroke-width="1.5"/>
  <line x1="1" y1="39" x2="9" y2="47" stroke="#8f8fa8" stroke-width="1.5"/>
  <line x1="9" y1="39" x2="1" y2="47" stroke="#8f8fa8" stroke-width="1.5"/>
  <line x1="39" y1="39" x2="47" y2="47" stroke="#f3f3ff" stroke-width="1.5"/>
  <line x1="47" y1="39" x2="39" y2="47" stroke="#f3f3ff" stroke-width="1.5"/>
</svg>
