<svg xmlns="http://www.w3.org/2000/svg" width="48" height="48" viewBox="0 0 48 48">
  <!-- Forest Temple: mossy temple ruins -->
  <defs>
    <linearGradient id="bg_09" x1="0" y1="0" x2="1" y2="1">
      <stop offset="0%" stop-color="#0d160b"/>
      <stop offset="100%" stop-color="#1e3720"/>
    </linearGradient>
    <linearGradient id="bd_09" x1="0" y1="0" x2="1" y2="1">
      <stop offset="0%" stop-color="#b6d69a"/>
      <stop offset="100%" stop-color="#5f8a52"/>
    </linearGradient>
  </defs>

  <rect width="48" height="48" rx="0" fill="url(#bg_09)"/>
  <rect x="1.5" y="1.5" width="45" height="45" rx="0" fill="none" stroke="url(#bd_09)" stroke-width="2"/>
  <rect x="4.5" y="4.5" width="39" height="39" rx="0" fill="none" stroke="#40613a" stroke-width="1"/>
  <rect x="6" y="6" width="36" height="36" rx="0" fill="#0b1209"/>
  <circle cx="18" cy="2.5" r="0.9" fill="#dff4c8"/>
  <circle cx="24" cy="2.5" r="0.9" fill="#dff4c8"/>
  <circle cx="30" cy="2.5" r="0.9" fill="#dff4c8"/>
  <circle cx="18" cy="45.5" r="0.9" fill="#88b977"/>
  <circle cx="24" cy="45.5" r="0.9" fill="#88b977"/>
  <circle cx="30" cy="45.5" r="0.9" fill="#88b977"/>

  <path d="M1 10 V1 H10" fill="none" stroke="#dff4c8" stroke-width="2"/>
  <path d="M38 1 H47 V10" fill="none" stroke="#88b977" stroke-width="2"/>
  <path d="M1 38 V47 H10" fill="none" stroke="#88b977" stroke-width="2"/>
  <path d="M38 47 H47 V38" fill="none" stroke="#dff4c8" stroke-width="2"/>
</svg>
