<svg xmlns="http://www.w3.org/2000/svg" width="48" height="48" viewBox="0 0 48 48" shape-rendering="crispEdges">
  <!-- Volcanic Core: obsidian frame with lava seams -->
  <defs>
    <linearGradient id="bg_14" x1="0" y1="0" x2="1" y2="1">
      <stop offset="0%" stop-color="#120707"/>
      <stop offset="100%" stop-color="#2f0b0b"/>
    </linearGradient>
    <linearGradient id="bd_14" x1="0" y1="0" x2="1" y2="1">
      <stop offset="0%" stop-color="#ffb37a"/>
      <stop offset="100%" stop-color="#de3e25"/>
    </linearGradient>
  </defs>

  <rect width="48" height="48" rx="0" fill="url(#bg_14)"/>
  <rect x="1.5" y="1.5" width="45" height="45" rx="0" fill="none" stroke="url(#bd_14)" stroke-width="2"/>
  <rect x="4.5" y="4.5" width="39" height="39" rx="0" fill="none" stroke="#7a2619" stroke-width="1"/>
  <rect x="6" y="6" width="36" height="36" rx="0" fill="#0e0505"/>
  <path d="M18 2.5 L24 6.5 L30 2.5" fill="none" stroke="#ffd3ad" stroke-width="1"/>
  <path d="M18 45.5 L24 41.5 L30 45.5" fill="none" stroke="#ff7247" stroke-width="1"/>
  <path d="M2.5 18 L6.5 24 L2.5 30" fill="none" stroke="#ffd3ad" stroke-width="1"/>
  <path d="M45.5 18 L41.5 24 L45.5 30" fill="none" stroke="#ff7247" stroke-width="1"/>

  <rect x="1" y="1" width="8" height="8" fill="#ffd3ad"/>
  <rect x="39" y="1" width="8" height="8" fill="#ff7247"/>
  <rect x="1" y="39" width="8" height="8" fill="#ff7247"/>
  <rect x="39" y="39" width="8" height="8" fill="#ffd3ad"/>
  <rect x="3" y="3" width="4" height="4" fill="#ff7247" opacity="0.35"/>
  <rect x="41" y="3" width="4" height="4" fill="#ffd3ad" opacity="0.35"/>
  <rect x="3" y="41" width="4" height="4" fill="#ffd3ad" opacity="0.35"/>
  <rect x="41" y="41" width="4" height="4" fill="#ff7247" opacity="0.35"/>
</svg>
