<svg xmlns="http://www.w3.org/2000/svg" width="48" height="48" viewBox="0 0 48 48">
  <!-- Starlight Iris: iris night sky sparkles -->
  <defs>
    <linearGradient id="bg_13" x1="0" y1="0" x2="1" y2="1">
      <stop offset="0%" stop-color="#0c0c21"/>
      <stop offset="100%" stop-color="#2b2050"/>
    </linearGradient>
    <linearGradient id="bd_13" x1="0" y1="0" x2="1" y2="1">
      <stop offset="0%" stop-color="#b4c2ff"/>
      <stop offset="100%" stop-color="#6d76d8"/>
    </linearGradient>
  </defs>

  <rect width="48" height="48" rx="1" fill="url(#bg_13)"/>
  <rect x="1.5" y="1.5" width="45" height="45" rx="1" fill="none" stroke="url(#bd_13)" stroke-width="2"/>
  <rect x="4.5" y="4.5" width="39" height="39" rx="1" fill="none" stroke="#434d9f" stroke-width="1"/>
  <rect x="6" y="6" width="36" height="36" rx="1" fill="#0a0a1a"/>


  <circle cx="18" cy="2.5" r="0.9" fill="#e7ecff"/>
  <circle cx="24" cy="2.5" r="0.9" fill="#e7ecff"/>
  <circle cx="30" cy="2.5" r="0.9" fill="#e7ecff"/>
  <circle cx="18" cy="45.5" r="0.9" fill="#8d99ff"/>
  <circle cx="24" cy="45.5" r="0.9" fill="#8d99ff"/>
  <circle cx="30" cy="45.5" r="0.9" fill="#8d99ff"/>

  <line x1="1" y1="1" x2="9" y2="9" stroke="#e7ecff" stroke-width="1.5"/>
  <line x1="9" y1="1" x2="1" y2="9" stroke="#e7ecff" stroke-width="1.5"/>
  <line x1="39" y1="1" x2="47" y2="9" stroke="#8d99ff" stroke-width="1.5"/>
  <line x1="47" y1="1" x2="39" y2="9" stroke="#8d99ff" stroke-width="1.5"/>
  <line x1="1" y1="39" x2="9" y2="47" stroke="#8d99ff" stroke-width="1.5"/>
  <line x1="9" y1="39" x2="1" y2="47" stroke="#8d99ff" stroke-width="1.5"/>
  <line x1="39" y1="39" x2="47" y2="47" stroke="#e7ecff" stroke-width="1.5"/>
  <line x1="47" y1="39" x2="39" y2="47" stroke="#e7ecff" stroke-width="1.5"/>
</svg>
