<svg xmlns="http://www.w3.org/2000/svg" width="48" height="48" viewBox="0 0 48 48">
  <!-- Obsidian Rune: dark mystic runes with violet sparks -->
  <defs>
    <linearGradient id="bg_02" x1="0" y1="0" x2="1" y2="1">
      <stop offset="0%" stop-color="#09070f"/>
      <stop offset="100%" stop-color="#21132d"/>
    </linearGradient>
    <linearGradient id="bd_02" x1="0" y1="0" x2="1" y2="1">
      <stop offset="0%" stop-color="#b798ff"/>
      <stop offset="100%" stop-color="#6f47a9"/>
    </linearGradient>
  </defs>

  <rect width="48" height="48" rx="0" fill="url(#bg_02)"/>
  <rect x="1.5" y="1.5" width="45" height="45" rx="0" fill="none" stroke="url(#bd_02)" stroke-width="2"/>
  <rect x="4.5" y="4.5" width="39" height="39" rx="0" fill="none" stroke="#40285e" stroke-width="1"/>
  <rect x="6" y="6" width="36" height="36" rx="0" fill="#0a0812"/>


  <circle cx="24" cy="2.5" r="1.4" fill="#d9c4ff"/>
  <circle cx="24" cy="45.5" r="1.4" fill="#8458c6"/>
  <circle cx="2.5" cy="24" r="1.4" fill="#d9c4ff"/>
  <circle cx="45.5" cy="24" r="1.4" fill="#8458c6"/>
  <line x1="20" y1="2.5" x2="28" y2="2.5" stroke="#d9c4ff" stroke-width="0.8"/>
  <line x1="20" y1="45.5" x2="28" y2="45.5" stroke="#8458c6" stroke-width="0.8"/>

  <path d="M1 10 V1 H10" fill="none" stroke="#d9c4ff" stroke-width="2"/>
  <path d="M38 1 H47 V10" fill="none" stroke="#8458c6" stroke-width="2"/>
  <path d="M1 38 V47 H10" fill="none" stroke="#8458c6" stroke-width="2"/>
  <path d="M38 47 H47 V38" fill="none" stroke="#d9c4ff" stroke-width="2"/>
</svg>
