<svg xmlns="http://www.w3.org/2000/svg" width="48" height="48" viewBox="0 0 48 48" shape-rendering="crispEdges">
  <!-- Amber Hazard: industrial warning stripes -->
  <defs>
    <linearGradient id="bg_07" x1="0" y1="0" x2="1" y2="1">
      <stop offset="0%" stop-color="#18120a"/>
      <stop offset="100%" stop-color="#30230f"/>
    </linearGradient>
    <linearGradient id="bd_07" x1="0" y1="0" x2="1" y2="1">
      <stop offset="0%" stop-color="#ffd963"/>
      <stop offset="100%" stop-color="#d07f21"/>
    </linearGradient>
  </defs>

  <rect width="48" height="48" rx="0" fill="url(#bg_07)"/>
  <rect x="1.5" y="1.5" width="45" height="45" rx="0" fill="none" stroke="url(#bd_07)" stroke-width="2"/>
  <rect x="4.5" y="4.5" width="39" height="39" rx="0" fill="none" stroke="#7c5a20" stroke-width="1"/>
  <rect x="6" y="6" width="36" height="36" rx="0" fill="#120d06"/>
  <line x1="14" y1="2.5" x2="34" y2="2.5" stroke="#ffe99f" stroke-width="1" opacity="0.8"/>
  <line x1="14" y1="45.5" x2="34" y2="45.5" stroke="#ffbd48" stroke-width="1" opacity="0.8"/>
  <line x1="2.5" y1="14" x2="2.5" y2="34" stroke="#ffe99f" stroke-width="1" opacity="0.8"/>
  <line x1="45.5" y1="14" x2="45.5" y2="34" stroke="#ffbd48" stroke-width="1" opacity="0.8"/>

  <rect x="1" y="1" width="8" height="8" fill="#ffe99f"/>
  <rect x="39" y="1" width="8" height="8" fill="#ffbd48"/>
  <rect x="1" y="39" width="8" height="8" fill="#ffbd48"/>
  <rect x="39" y="39" width="8" height="8" fill="#ffe99f"/>
  <rect x="3" y="3" width="4" height="4" fill="#ffbd48" opacity="0.35"/>
  <rect x="41" y="3" width="4" height="4" fill="#ffe99f" opacity="0.35"/>
  <rect x="3" y="41" width="4" height="4" fill="#ffe99f" opacity="0.35"/>
  <rect x="41" y="41" width="4" height="4" fill="#ffbd48" opacity="0.35"/>
</svg>
