<svg xmlns="http://www.w3.org/2000/svg" width="48" height="48" viewBox="0 0 48 48">
  <rect width="48" height="48" fill="#0b0b0b"/>
  <path d="M0,0 L6,0 L6,3 L3,3 L3,6 L0,6 Z" fill="#aaa" opacity="0.4"/>
  <path d="M48,0 L42,0 L42,3 L45,3 L45,6 L48,6 Z" fill="#aaa" opacity="0.4"/>
  <path d="M48,48 L42,48 L42,45 L45,45 L45,42 L48,42 Z" fill="#aaa" opacity="0.4"/>
  <path d="M0,48 L6,48 L6,45 L3,45 L3,42 L0,42 Z" fill="#aaa" opacity="0.4"/>
  <rect x="2" y="2" width="44" height="44" fill="none" stroke="#666" stroke-width="0.5"/>
  <rect x="6" y="6" width="36" height="36" fill="#0b0b0b"/>
</svg>
