<svg xmlns="http://www.w3.org/2000/svg" width="48" height="48" viewBox="0 0 48 48" shape-rendering="crispEdges">
  <!-- Copper Industrial: burnished copper machinery look -->
  <defs>
    <linearGradient id="bg_12" x1="0" y1="0" x2="1" y2="1">
      <stop offset="0%" stop-color="#18100c"/>
      <stop offset="100%" stop-color="#3f2317"/>
    </linearGradient>
    <linearGradient id="bd_12" x1="0" y1="0" x2="1" y2="1">
      <stop offset="0%" stop-color="#f1b489"/>
      <stop offset="100%" stop-color="#a35636"/>
    </linearGradient>
  </defs>

  <rect width="48" height="48" rx="0" fill="url(#bg_12)"/>
  <rect x="1.5" y="1.5" width="45" height="45" rx="0" fill="none" stroke="url(#bd_12)" stroke-width="2"/>
  <rect x="4.5" y="4.5" width="39" height="39" rx="0" fill="none" stroke="#6e3f2a" stroke-width="1"/>
  <rect x="6" y="6" width="36" height="36" rx="0" fill="#120b08"/>
  <line x1="17" y1="2.5" x2="17" y2="5.5" stroke="#ffd7bd" stroke-width="1"/>
  <line x1="24" y1="2.5" x2="24" y2="6.5" stroke="#ffd7bd" stroke-width="1"/>
  <line x1="31" y1="2.5" x2="31" y2="5.5" stroke="#ffd7bd" stroke-width="1"/>
  <line x1="17" y1="45.5" x2="17" y2="42.5" stroke="#c87852" stroke-width="1"/>
  <line x1="24" y1="45.5" x2="24" y2="41.5" stroke="#c87852" stroke-width="1"/>
  <line x1="31" y1="45.5" x2="31" y2="42.5" stroke="#c87852" stroke-width="1"/>

  <path d="M1 1 H11 V4 H4 V11 H1 Z" fill="#ffd7bd"/>
  <path d="M47 1 V11 H44 V4 H37 V1 Z" fill="#c87852"/>
  <path d="M1 47 H11 V44 H4 V37 H1 Z" fill="#c87852"/>
  <path d="M47 47 V37 H44 V44 H37 V47 Z" fill="#ffd7bd"/>
</svg>
