<svg xmlns="http://www.w3.org/2000/svg" width="48" height="48" viewBox="0 0 48 48">
  <!-- Ice Prism: crystalline frosty prism edge -->
  <defs>
    <linearGradient id="bg_08" x1="0" y1="0" x2="1" y2="1">
      <stop offset="0%" stop-color="#081521"/>
      <stop offset="100%" stop-color="#173a53"/>
    </linearGradient>
    <linearGradient id="bd_08" x1="0" y1="0" x2="1" y2="1">
      <stop offset="0%" stop-color="#b8f4ff"/>
      <stop offset="100%" stop-color="#6dc3e8"/>
    </linearGradient>
  </defs>

  <rect width="48" height="48" rx="1" fill="url(#bg_08)"/>
  <rect x="1.5" y="1.5" width="45" height="45" rx="1" fill="none" stroke="url(#bd_08)" stroke-width="2"/>
  <rect x="4.5" y="4.5" width="39" height="39" rx="1" fill="none" stroke="#3f7ea2" stroke-width="1"/>
  <rect x="6" y="6" width="36" height="36" rx="1" fill="#07111b"/>
  <circle cx="24" cy="2.5" r="1.4" fill="#e7fcff"/>
  <circle cx="24" cy="45.5" r="1.4" fill="#94ddff"/>
  <circle cx="2.5" cy="24" r="1.4" fill="#e7fcff"/>
  <circle cx="45.5" cy="24" r="1.4" fill="#94ddff"/>
  <line x1="20" y1="2.5" x2="28" y2="2.5" stroke="#e7fcff" stroke-width="0.8"/>
  <line x1="20" y1="45.5" x2="28" y2="45.5" stroke="#94ddff" stroke-width="0.8"/>

  <polygon points="4,1 7,4 4,7 1,4" fill="#e7fcff" opacity="0.9"/>
  <polygon points="44,1 47,4 44,7 41,4" fill="#94ddff" opacity="0.9"/>
  <polygon points="4,41 7,44 4,47 1,44" fill="#94ddff" opacity="0.9"/>
  <polygon points="44,41 47,44 44,47 41,44" fill="#e7fcff" opacity="0.9"/>
</svg>
