<svg xmlns="http://www.w3.org/2000/svg" width="48" height="48" viewBox="0 0 48 48">
  <!-- Aurora Lattice: neon aurora with geometric lattice -->
  <defs>
    <linearGradient id="bg_01" x1="0" y1="0" x2="1" y2="1">
      <stop offset="0%" stop-color="#0a1020"/>
      <stop offset="100%" stop-color="#1f3f68"/>
    </linearGradient>
    <linearGradient id="bd_01" x1="0" y1="0" x2="1" y2="1">
      <stop offset="0%" stop-color="#9cf5ff"/>
      <stop offset="100%" stop-color="#7a8cff"/>
    </linearGradient>
  </defs>

  <rect width="48" height="48" rx="0" fill="url(#bg_01)"/>
  <rect x="1.5" y="1.5" width="45" height="45" rx="0" fill="none" stroke="url(#bd_01)" stroke-width="2"/>
  <rect x="4.5" y="4.5" width="39" height="39" rx="0" fill="none" stroke="#335a7a" stroke-width="1"/>
  <rect x="6" y="6" width="36" height="36" rx="0" fill="#090f1e"/>
  <line x1="14" y1="2.5" x2="34" y2="2.5" stroke="#c7fbff" stroke-width="1" opacity="0.8"/>
  <line x1="14" y1="45.5" x2="34" y2="45.5" stroke="#77b7ff" stroke-width="1" opacity="0.8"/>
  <line x1="2.5" y1="14" x2="2.5" y2="34" stroke="#c7fbff" stroke-width="1" opacity="0.8"/>
  <line x1="45.5" y1="14" x2="45.5" y2="34" stroke="#77b7ff" stroke-width="1" opacity="0.8"/>

  <polygon points="4,1 7,4 4,7 1,4" fill="#c7fbff" opacity="0.9"/>
  <polygon points="44,1 47,4 44,7 41,4" fill="#77b7ff" opacity="0.9"/>
  <polygon points="4,41 7,44 4,47 1,44" fill="#77b7ff" opacity="0.9"/>
  <polygon points="44,41 47,44 44,47 41,44" fill="#c7fbff" opacity="0.9"/>
</svg>
