<svg xmlns="http://www.w3.org/2000/svg" width="48" height="48" viewBox="0 0 48 48">
  <!-- Lagoon Glass: clean aqua glass style -->
  <defs>
    <linearGradient id="bg_15" x1="0" y1="0" x2="1" y2="1">
      <stop offset="0%" stop-color="#081a1b"/>
      <stop offset="100%" stop-color="#184043"/>
    </linearGradient>
    <linearGradient id="bd_15" x1="0" y1="0" x2="1" y2="1">
      <stop offset="0%" stop-color="#8ef2ef"/>
      <stop offset="100%" stop-color="#4aa3af"/>
    </linearGradient>
  </defs>

  <rect width="48" height="48" rx="2" fill="url(#bg_15)"/>
  <rect x="1.5" y="1.5" width="45" height="45" rx="2" fill="none" stroke="url(#bd_15)" stroke-width="2"/>
  <rect x="4.5" y="4.5" width="39" height="39" rx="1" fill="none" stroke="#2b7180" stroke-width="1"/>
  <rect x="6" y="6" width="36" height="36" rx="1" fill="#071112"/>
  <circle cx="18" cy="2.5" r="0.9" fill="#cbfffb"/>
  <circle cx="24" cy="2.5" r="0.9" fill="#cbfffb"/>
  <circle cx="30" cy="2.5" r="0.9" fill="#cbfffb"/>
  <circle cx="18" cy="45.5" r="0.9" fill="#70d3dc"/>
  <circle cx="24" cy="45.5" r="0.9" fill="#70d3dc"/>
  <circle cx="30" cy="45.5" r="0.9" fill="#70d3dc"/>

  <polygon points="4,1 7,4 4,7 1,4" fill="#cbfffb" opacity="0.9"/>
  <polygon points="44,1 47,4 44,7 41,4" fill="#70d3dc" opacity="0.9"/>
  <polygon points="4,41 7,44 4,47 1,44" fill="#70d3dc" opacity="0.9"/>
  <polygon points="44,41 47,44 44,47 41,44" fill="#cbfffb" opacity="0.9"/>
</svg>
