<svg xmlns="http://www.w3.org/2000/svg" width="48" height="48" viewBox="0 0 48 48">
  <!-- Nebula Wave: space nebula with cyan-magenta border -->
  <defs>
    <linearGradient id="bg_17" x1="0" y1="0" x2="1" y2="1">
      <stop offset="0%" stop-color="#100a20"/>
      <stop offset="100%" stop-color="#2f1552"/>
    </linearGradient>
    <linearGradient id="bd_17" x1="0" y1="0" x2="1" y2="1">
      <stop offset="0%" stop-color="#42e8ff"/>
      <stop offset="100%" stop-color="#ff71d6"/>
    </linearGradient>
  </defs>

  <rect width="48" height="48" rx="1" fill="url(#bg_17)"/>
  <rect x="1.5" y="1.5" width="45" height="45" rx="1" fill="none" stroke="url(#bd_17)" stroke-width="2"/>
  <rect x="4.5" y="4.5" width="39" height="39" rx="1" fill="none" stroke="#6f3f98" stroke-width="1"/>
  <rect x="6" y="6" width="36" height="36" rx="1" fill="#0d0818"/>


  <line x1="14" y1="2.5" x2="34" y2="2.5" stroke="#b6fbff" stroke-width="1" opacity="0.8"/>
  <line x1="14" y1="45.5" x2="34" y2="45.5" stroke="#ffb4eb" stroke-width="1" opacity="0.8"/>
  <line x1="2.5" y1="14" x2="2.5" y2="34" stroke="#b6fbff" stroke-width="1" opacity="0.8"/>
  <line x1="45.5" y1="14" x2="45.5" y2="34" stroke="#ffb4eb" stroke-width="1" opacity="0.8"/>

  <polygon points="1,1 10,1 1,10" fill="#b6fbff" opacity="0.9"/>
  <polygon points="47,1 38,1 47,10" fill="#ffb4eb" opacity="0.9"/>
  <polygon points="1,47 1,38 10,47" fill="#ffb4eb" opacity="0.9"/>
  <polygon points="47,47 38,47 47,38" fill="#b6fbff" opacity="0.9"/>
</svg>
